<?xml version="1.0" encoding="UTF-8" standalone="no"?>
<!-- Created with Inkscape (http://www.inkscape.org/) -->

<svg
   xmlns:dc="http://purl.org/dc/elements/1.1/"
   xmlns:cc="http://creativecommons.org/ns#"
   xmlns:rdf="http://www.w3.org/1999/02/22-rdf-syntax-ns#"
   xmlns:svg="http://www.w3.org/2000/svg"
   xmlns="http://www.w3.org/2000/svg"
   xmlns:sodipodi="http://sodipodi.sourceforge.net/DTD/sodipodi-0.dtd"
   xmlns:inkscape="http://www.inkscape.org/namespaces/inkscape"
   width="210mm"
   height="297mm"
   viewBox="0 0 210 297"
   version="1.1"
   id="svg4934"
   inkscape:version="0.92.1 r15371"
   sodipodi:docname="Rent Strike South Africa logo vector.svg">
  <defs
     id="defs4928" />
  <sodipodi:namedview
     id="base"
     pagecolor="#ffffff"
     bordercolor="#666666"
     borderopacity="1.0"
     inkscape:pageopacity="0.0"
     inkscape:pageshadow="2"
     inkscape:zoom="0.10559281"
     inkscape:cx="-62.857143"
     inkscape:cy="560"
     inkscape:document-units="mm"
     inkscape:current-layer="layer1"
     showgrid="false"
     inkscape:window-width="1366"
     inkscape:window-height="705"
     inkscape:window-x="-8"
     inkscape:window-y="-8"
     inkscape:window-maximized="1" />
  <metadata
     id="metadata4931">
    <rdf:RDF>
      <cc:Work
         rdf:about="">
        <dc:format>image/svg+xml</dc:format>
        <dc:type
           rdf:resource="http://purl.org/dc/dcmitype/StillImage" />
        <dc:title></dc:title>
      </cc:Work>
    </rdf:RDF>
  </metadata>
  <g
     inkscape:label="Layer 1"
     inkscape:groupmode="layer"
     id="layer1">
    <circle
       style="opacity:1;vector-effect:none;fill:#000000;fill-opacity:1;fill-rule:evenodd;stroke:none;stroke-width:0.23775493px;stroke-linecap:butt;stroke-linejoin:miter;stroke-miterlimit:4;stroke-dasharray:none;stroke-dashoffset:0;stroke-opacity:1"
       id="path4806"
       cx="164.04167"
       cy="97.428574"
       r="528.70245"
       inkscape:export-xdpi="96"
       inkscape:export-ydpi="96" />
    <path
       style="opacity:1;vector-effect:none;fill:#ffffff;fill-opacity:1;stroke:#ffffff;stroke-width:2.5;stroke-linecap:round;stroke-linejoin:round;stroke-miterlimit:4;stroke-dasharray:none;stroke-dashoffset:0;stroke-opacity:1;paint-order:fill markers stroke"
       d="m 274.67891,-5.4510322 c 0,0 20.57968,0.93544 28.9987,-0.93543 8.41899,-1.8709 22.45069,-3.7417898 22.45069,-3.7417898 0,0 -0.93549,-21.51518 -13.09629,-30.86963 -12.1607,-9.35442 -35.5468,-7.48353 -42.09489,-2.80633 -6.54812,4.67723 -16.83801,15.90254 -17.77342,28.99876 -0.93548,13.0962098 1.8709,27.12786 1.8709,27.12786 0,0 4.6772,19.64431 14.96711,25.25697 10.2898,5.61265 37.80739,4.754 47.7076,-0.93547 6.59821,-3.79187 8.9771,-9.19712 10.2898,-17.97388 1.328,-8.8783602 -0.54281,-12.0605302 -0.54281,-12.0605302 l -18.6254,3.24898 c 0,0 2.8063,15.9025402 -9.3544,15.9025402 -6.1228,0 -15.01568,2.02824 -19.3575,-2.46912 -4.28159,-4.43497 -3.5823,-22.2405602 -5.44009,-28.7429302 z"
       id="path4497-8"
       inkscape:connector-curvature="0"
       sodipodi:nodetypes="csccsccsssccssc"
       inkscape:export-xdpi="96"
       inkscape:export-ydpi="96" />
    <path
       style="opacity:1;vector-effect:none;fill:#ffffff;fill-opacity:1;stroke:#ffffff;stroke-width:2.5;stroke-linecap:round;stroke-linejoin:round;stroke-miterlimit:4;stroke-dasharray:none;stroke-dashoffset:0;stroke-opacity:1;paint-order:fill markers stroke"
       d="m 171.6459,-47.011992 c 0,0 1.5358,7.88379 2.00451,15.10107 0.54559,8.40128 -0.93541,14.96708 0,25.2569598 0.93548,10.28989 4.4695,26.6947702 2.5986,38.8555202 -1.87089,12.16075 2.07859,23.81919 2.07859,23.81919 l 27.12789,-1.87089 -4.6772,-33.67596 34.61142,35.54685 30.8696,-1.87089 c 0,0 -43.96581,-49.5785002 -48.64301,-48.6430602 -4.6772,0.93546 16.838,-24.3215398 23.38602,-36.4822898 6.5482,-12.16075 19.64438,-21.5152 19.64438,-21.5152 0,0 -12.0564,0.86585 -19.5399,0.86585 -7.48361,0 -15.431,-0.14552 -15.431,-0.14552 0,0 1.29489,5.82779 -13.67219,23.6012 -14.96711,17.77341 -15.10091,18.7088698 -15.10091,18.7088698 0,0 -1.73709,-13.0962098 -3.60799,-27.1278598 -1.87081,-14.03165 -2.93999,-14.1656 -2.93999,-14.1656 z"
       id="path4501-1"
       inkscape:connector-curvature="0"
       sodipodi:nodetypes="csssccccccccscccscc"
       inkscape:export-xdpi="96"
       inkscape:export-ydpi="96" />
    <path
       style="opacity:1;vector-effect:none;fill:#ffffff;fill-opacity:1;stroke:#ffffff;stroke-width:2.5;stroke-linecap:round;stroke-linejoin:round;stroke-miterlimit:4;stroke-dasharray:none;stroke-dashoffset:0;stroke-opacity:1;paint-order:fill markers stroke"
       d="m 164.29601,-190.00086 c -3.74182,-15.90253 -0.93541,-26.19241 -0.93541,-26.19241 l 138.44561,3.74177 c 0,0 -1.87089,8.419 -0.93551,16.83798 0.93551,8.419 0,7.98313 0,7.98313 l -36.74269,-0.28165 c 0,0 0.2604,9.1365 1.19589,25.97449 0.93541,16.83798 -4.6772,95.415208 -4.6772,95.415208 0,0 -4.71209,-0.47284 -15.0019,-0.47284 -10.28988,0 -13.06139,-0.46259 -13.06139,-0.46259 0,0 -4.67731,-15.90255 -1.8709,-38.353178 2.8063,-22.45064 0.93538,-55.19116 0,-69.22282 -0.93551,-14.03164 -6.05869,-15.51431 -6.05869,-15.51431 0,0 -11.71472,-2.25911 -27.61732,-2.25911 -15.90249,0 -32.74049,2.80633 -32.74049,2.80633 z"
       id="path4503-9"
       inkscape:connector-curvature="0"
       sodipodi:nodetypes="ccccccscscsccsc"
       inkscape:export-xdpi="96"
       inkscape:export-ydpi="96" />
    <path
       style="opacity:1;vector-effect:none;fill:#ffffff;fill-opacity:1;stroke:#ffffff;stroke-width:2.5;stroke-linecap:round;stroke-linejoin:round;stroke-miterlimit:4;stroke-dasharray:none;stroke-dashoffset:0;stroke-opacity:1;paint-order:fill markers stroke"
       d="m 179.26309,-179.71099 h 28.99871 c 0,0 -0.93539,9.35445 -2.80631,33.67596 -1.87089,24.32153 4.18783,44.36854 4.18783,44.36854 0,0 -8.93731,-0.48943 -15.4854,1.38147 -6.54812,1.870888 -15.38423,-0.87763 -15.38423,-0.87763 0,0 -3.79957,-8.37562 -14.07499,-17.83125 -4.67399,-4.30101 -9.69459,-8.47219 -13.6652,-13.90494 -7.563,-10.34774 -17.13219,-19.79991 -17.13219,-19.79991 0,0 0.93549,13.09619 -0.93541,28.99874 -1.87089,15.90254 3.32531,22.39086 3.32531,22.39086 0,0 -4.79419,-2.22165 -14.73321,-1.1693 -9.71209,1.02833 -14.32399,1.34472 -14.32399,1.34472 l 0.93538,-93.54435 c 0,0 0.68572,-3.04714 -0.93538,-13.0962 -0.64111,-3.97351 1.87079,-3.74178 1.87079,-3.74178 0,0 21.0403,-0.48941 28.50941,3.32465 4.24558,10.26096 10.85149,35.14417 20.20599,49.17582 9.3544,14.03165 22.3783,24.20588 22.3783,24.20588 0,0 -0.93541,-13.09619 0,-24.32151 0.93551,-11.22532 -0.93541,-20.57977 -0.93541,-20.57977 z"
       id="path4505-6"
       inkscape:connector-curvature="0"
       sodipodi:nodetypes="ccccccsscccsccsccsccc"
       inkscape:export-xdpi="96"
       inkscape:export-ydpi="96" />
    <path
       style="opacity:1;vector-effect:none;fill:#ffffff;fill-opacity:1;stroke:#ffffff;stroke-width:2.5;stroke-linecap:round;stroke-linejoin:round;stroke-miterlimit:4;stroke-dasharray:none;stroke-dashoffset:0;stroke-opacity:1;paint-order:fill markers stroke"
       d="m 34.355193,-214.06935 c -11.74178,0.7487 -13.32989,-2.36098 -12.85108,5.89944 0.47879,8.26043 4.899,61.79796 3.62699,70.40965 -1.27201,8.61171 -1.4234,20.50108 -1.41121,24.56188 0.0119,3.87371 0.61392,8.31487 0.61392,8.31487 0,0 18.46979,-2.99638 32.21188,-0.18243 13.74211,2.81395 41.47032,3.25041 41.47032,3.25041 0,0 -2.78421,-5.33379 -2.4995,-11.39045 0.2848,-6.05668 0.46779,-9.95024 0.46779,-9.95024 0,0 -13.9658,1.94485 -30.36459,0.30673 -16.3989,-1.63811 -12.07881,-3.2739 -12.07881,-3.2739 0,0 -0.3841,-11.80282 0.2722,-16.54127 0.6563,-4.73848 2.82559,-2.7976 9.76791,-2.90478 6.94219,-0.10721 10.8358,0.0759 10.8358,0.0759 0,0 -1.4864,-5.2728 -0.78941,-10.87649 0.69699,-5.60372 2.50881,-7.25282 2.50881,-7.25282 0,0 -13.72172,-3.24656 -19.40682,-2.21313 -5.68508,1.03346 -3.3115,-1.81177 -5.12889,-9.26797 -1.8173,-7.45621 1.53651,-14.23573 1.53651,-14.23573 0,0 6.42818,1.60295 17.28438,1.24618 10.85612,-0.35676 24.16562,2.43685 24.16562,2.43685 0,0 0.035,-9.97057 -0.072,-16.91281 -0.10721,-6.94223 1.27199,-8.61169 1.27199,-8.61169 0,0 -10.50489,2.10757 -23.40211,-0.23307 -12.89719,-2.34066 -38.0297,-2.65509 -38.0297,-2.65509 z"
       id="path4507-6"
       inkscape:connector-curvature="0"
       sodipodi:nodetypes="cccscscscsccsccccccscscccc"
       inkscape:export-xdpi="96"
       inkscape:export-ydpi="96" />
    <path
       style="opacity:1;vector-effect:none;fill:#ffffff;fill-opacity:1;stroke:#ffffff;stroke-width:2.40539646;stroke-linecap:round;stroke-linejoin:round;stroke-miterlimit:4;stroke-dasharray:none;stroke-dashoffset:0;stroke-opacity:1;paint-order:fill markers stroke"
       d="m -75.560287,-214.95137 c 2.84628,7.29347 2.54928,23.97993 2.69629,40.27887 0.14689,16.29895 0.674,39.30632 -0.24969,46.76164 -0.9235,7.4553 -0.9262,18.59457 5.2819,19.43351 6.20808,0.83895 25.31079,-0.24952 39.9465,0.88501 20.5605901,1.59382 33.3481901,1.94059 33.3481901,1.94059 0,0 -3.64151,-19.39875 -10.322,-30.99261 -9.2970901,-16.13484 -16.6642001,-19.09048 -22.4283101,-20.31695 -5.764,-1.22651 2.91031,0.19748 12.53652,-6.2496 9.6260901,-6.44708 21.0355901,-20.7088 13.2358001,-35.02105 -7.7997,-14.31226 -12.9788101,-18.00506 -32.1597001,-18.47137 -19.181,-0.46631 -32.8444,-2.22884 -41.8855,1.75196 z"
       id="path4509-4"
       inkscape:connector-curvature="0"
       sodipodi:nodetypes="csssscsssssc"
       inkscape:export-xdpi="96"
       inkscape:export-ydpi="96" />
    <path
       style="opacity:1;vector-effect:none;fill:#ffffff;fill-opacity:1;stroke:#ffffff;stroke-width:2.5;stroke-linecap:round;stroke-linejoin:round;stroke-miterlimit:4;stroke-dasharray:none;stroke-dashoffset:0;stroke-opacity:1;paint-order:fill markers stroke"
       d="m -59.161097,-54.832472 c -3.4648,-12.55979 -3.3166,-20.54402 -10.82741,-22.08792 -7.66789,-1.57614 -15.8967,1.98091 -19.38978,7.61117 -3.0032,4.84055 -1.78911,21.4063 -1.78911,21.4063 0,0 2.1654,9.52812 15.59139,9.52812 13.42602,0 22.1942,-5.05047 39.31952,3.71329 13.30539,6.8089 16.2964,11.28361 20.3499,24.01457 4.3585,13.6892998 6.8948801,22.35491 3.5271,41.35464 -1.9809,11.17541 -7.41952,18.39473 -11.53731,23.72801 -4.6854,6.06828 -6.1273,9.64878 -19.98639,11.38116 -13.85911,1.73239 -41.57731,1.29929 -50.23921,-6.49644 -8.661903,-7.79574 -15.158403,-26.85198 -16.024603,-38.11249 -0.8662,-11.2605102 -0.4331,-19.9224402 6.4965,-19.9224402 6.929493,0 10.827413,-0.43309998 17.756903,-1.29928998 6.9296,-0.86619 10.3944,2.16547998 8.22889,11.69361018 -2.16548,9.52812 -2.90388,23.3872 10.08912,26.85198 12.99279,3.46477 18.41018,-4.76407 18.41018,-4.76407 0,0 7.02181,-9.00273 7.54722,-21.09387 0.31959,-7.3556902 -1.66852,-15.5703102 -11.2889,-23.60735 -7.10531,-5.93592 -15.0916,-1.18761 -25.48591,-3.78618 -10.39429,-2.59858 -25.391903,-5.64965 -31.455203,-22.10732 -6.0634,-16.45766 -2.7958,-38.62665 3.2676,-49.88716 6.0633,-11.26051 31.317303,-12.99289 36.514413,-12.1267 5.19718,0.86619 24.6226,6.21956 26.788,15.31459 2.16548,9.09502 5.3944,29.53162 1.92961,29.53162 -3.46472,0 -15.62701,3.06004 -17.79252,-0.83783 z"
       id="path4511-3"
       inkscape:connector-curvature="0"
       sodipodi:nodetypes="csscsssssssssssscssssssssc"
       inkscape:export-xdpi="96"
       inkscape:export-ydpi="96" />
    <path
       style="opacity:1;vector-effect:none;fill:#ffffff;fill-opacity:1;stroke:#ffffff;stroke-width:2.5;stroke-linecap:round;stroke-linejoin:round;stroke-miterlimit:4;stroke-dasharray:none;stroke-dashoffset:0;stroke-opacity:1;paint-order:fill markers stroke"
       d="m -27.417177,-92.575782 c 15.25068,-0.21294 32.1406801,-2.02938 44.14747,-0.12065 11.07591,1.76075 19.05622,2.59858 27.2851,3.03167 8.22881,0.4331 14.72531,-4.33096 13.85912,7.36264 -0.8662,11.69361 2.62689,13.89465 -0.40482,16.06013 -3.03159,2.16549 -12.55979,2.16549 -20.35548,0.8662 -7.79571,-1.29929 -10.8558,2.56301 -10.4227,9.49256 0.4331,6.92954 2.16548,49.3729898 1.73238,62.7989798 -0.43309,13.4259902 -0.86619,39.8448802 -0.86619,39.8448802 0,0 -10.39429,3.89787 -16.45769,4.76406 -6.0632999,0.86619 -7.7957099,-1.73239 -7.7957099,-1.73239 0,0 0.4331,-71.02782 0.4331,-84.8869 0,-13.85909 3.64932,-29.72745 -4.57949005,-29.29435 -8.22880995,0.4331 -26.11361005,1.73238 -26.11361005,1.73238 0,0 -5.22549,-29.48611 -0.46148,-29.91921 z"
       id="path4513-2"
       inkscape:connector-curvature="0"
       sodipodi:nodetypes="cssscssscccsscc"
       inkscape:export-xdpi="96"
       inkscape:export-ydpi="96" />
    <path
       style="opacity:1;vector-effect:none;fill:#ffffff;fill-opacity:1;stroke:#ffffff;stroke-width:2.5;stroke-linecap:round;stroke-linejoin:round;stroke-miterlimit:4;stroke-dasharray:none;stroke-dashoffset:0;stroke-opacity:1;paint-order:fill markers stroke"
       d="m 50.078693,-48.087502 c 9.62041,-1.07913 19.92252,-2.16548 37.24632,-2.16548 17.323887,0 22.954087,6.06335 22.954087,14.72528 0,8.66193 -1.82409,18.38825 -8.6619,25.9857898 -3.897897,4.33096 -7.362587,6.92954 -10.394287,9.96122002 -3.0317,3.03166998 -4.33099,3.03166998 -8.6619,3.89786998 -4.331,0.86619 7.7957,5.19715 15.59139,16.8907602 7.795807,11.6936 19.922507,30.74985 19.056297,32.91533 -0.8662,2.16548 -12.9929,-0.86619 -28.151297,-1.73239 -15.1584,-0.86619 -21.6548,1.73239 -29.45059,0.4331 -7.79571,-1.29929 -8.2288,-3.46477 -8.2288,-3.46477 0,0 2.16551,-52.8377702 0.43309,-72.32711 -1.73241,-19.48934 -1.73241,-25.1196 -1.73241,-25.1196 z"
       id="path4515-9"
       inkscape:connector-curvature="0"
       sodipodi:nodetypes="csssssscsscsc"
       inkscape:export-xdpi="96"
       inkscape:export-ydpi="96" />
    <path
       style="opacity:1;vector-effect:none;fill:#ffffff;fill-opacity:1;stroke:#ffffff;stroke-width:2.5;stroke-linecap:round;stroke-linejoin:round;stroke-miterlimit:4;stroke-dasharray:none;stroke-dashoffset:0;stroke-opacity:1;paint-order:fill markers stroke"
       d="m 134.9303,-61.981932 c 0,0 1.00761,20.15223 0,36.27403 -1.00758,16.1217798 -2.07039,39.09859 -1.5114,54.41106 0.4174,11.43646 -1.51149,19.64843 0.50382,28.71692 2.01519,9.06852 1.51137,12.59517 1.51137,12.59517 0,0 -4.0305,-2.51904 -18.64079,-2.51904 -14.6104,0 -37.785487,-1.00761 -37.785487,-1.00761 0,0 2.51899,11.58756 2.51899,16.1218 0,4.53424 1.00761,6.5495 1.00761,6.5495 0,0 24.686497,-3.52666 39.296897,-2.51905 14.6104,1.00761 38.28928,3.02284 56.9301,1.51141 18.6408,-1.51141 27.70929,0 27.2055,-2.51902 -0.5038,-2.51905 -2.0152,-11.08374 -2.0152,-13.60276 0,-2.51904 3.02289,-3.02284 -8.5647,-4.53427 -11.58751,-1.51141 -34.2588,0.50382 -34.2588,0.50382 0,0 -2.519,-20.65605 -1.51141,-39.29687 1.00761,-18.64082 -2.0152,-57.4339 -1.51149,-70.02904 0.5039,-12.59518 -2.01519,-20.65605 -2.01519,-20.65605 0,0 15.61798,1.51141 22.67129,0 7.05329,-1.51143 22.6713,-1.51143 28.7169,-1.51143 6.0457,0 1.00769,-10.07613 1.51149,-16.12181 0.50382,-6.04565 3.5266,-7.55708 -9.06849,-7.55708 -12.5952,0 -54.41111,-3.02284 -62.97581,-1.00761 -8.56469,2.01522 -18.64079,-1.00761 -25.19029,1.00761 -6.5495,2.01523 -32.243607,-2.01522 -32.243607,-2.01522 0,0 3.52661,11.58753 3.02281,16.62559 -0.50382,5.03807 -4.03039,7.05329 3.52669,7.05329 7.55711,0 28.716887,2.51905 33.755007,2.01523 5.03809,-0.5038 15.61798,-2.01523 15.11419,1.51143 z"
       id="path4517-1"
       inkscape:connector-curvature="0"
       sodipodi:nodetypes="cssscscscsscsscsccsscsssccssc"
       inkscape:export-xdpi="96"
       inkscape:export-ydpi="96" />
    <path
       style="opacity:1;vector-effect:none;fill:#ffffff;fill-opacity:1;stroke:#ffffff;stroke-width:2.5;stroke-linecap:round;stroke-linejoin:round;stroke-miterlimit:4;stroke-dasharray:none;stroke-dashoffset:0;stroke-opacity:1;paint-order:fill markers stroke"
       d="m 87.790103,115.45133 c 7.6654,-10.67035 13.136507,-11.377 22.283887,-12.4302 8.62902,-0.99354 28.4489,-5.821052 39.28372,3.80984 10.83469,9.63088 10.83469,45.74672 6.0193,52.36797 -4.8155,6.62123 -13.78511,7.51478 -26.46421,8.79933 -8.3412,0.84508 -27.0869,2.40771 -35.513797,-5.4174 -8.42709,-7.82508 -10.50049,-40.32049 -5.6089,-47.12954 z"
       id="path4519-7"
       inkscape:connector-curvature="0"
       sodipodi:nodetypes="sscsscs"
       inkscape:export-xdpi="96"
       inkscape:export-ydpi="96" />
    <path
       style="opacity:1;vector-effect:none;fill:#ffffff;fill-opacity:1;stroke:#ffffff;stroke-width:2.5;stroke-linecap:round;stroke-linejoin:round;stroke-miterlimit:4;stroke-dasharray:none;stroke-dashoffset:0;stroke-opacity:1;paint-order:fill markers stroke"
       d="m 67.975113,113.22259 c -18.65979,3.61156 -22.87331,4.21349 -24.67912,-4.81547 -1.80578,-9.028962 -4.21349,-21.067582 -12.64049,-19.863702 -8.42709,1.20385 -13.0134,6.47488 -15.65029,12.640552 -2.85002,6.66435 -3.00961,12.03862 1.8058,21.6695 4.8155,9.63089 9.63089,9.63089 25.88308,15.04826 16.25211,5.41737 25.88302,10.23281 28.89261,18.05792 3.00971,7.8251 4.81549,25.88302 4.21351,43.94094 -0.6019,18.05792 -6.62119,28.89268 -12.03851,32.50427 -5.4174,3.61157 -29.49469,7.82508 -38.5236,6.62123 -9.02899,-1.20386 -21.6695099,-10.23282 -27.0868999,-22.27144 -5.4174,-12.03862 -6.0193,-28.29075 -6.0193,-36.71776 0,-8.42703 -0.6019,-12.03862 10.23281,-12.03862 10.8347999,0 13.2424999,0.60193 15.0482799,13.8444 1.80581,13.24248 1.20381,18.05792 10.83472,21.06758 9.63089,3.00964 18.058,0.60193 18.6599,-9.02898 0.6019,-9.63086 2.40771,-22.27141 -2.40771,-28.89266 -4.8155,-6.62123 -13.8444,-11.43667 -21.06761,-11.43667 -7.22318,0 -24.6791899,0 -30.0964799,-10.83477 -5.4174001,-10.83474 -5.4174001,-30.09654 -1.80581,-44.542872 3.61151,-14.44633 13.8444,-31.30039 23.4752099,-31.90232 9.63099,-0.60192 25.8831,-1.20388 33.1062,2.40771 7.2232,3.61159 12.6678,8.95752 18.058,18.65985 3.00961,5.41739 3.826,17.658022 1.8057,25.883052 z"
       id="path4521-5"
       inkscape:connector-curvature="0"
       sodipodi:nodetypes="cccssscscccssssscsssscsc"
       inkscape:export-xdpi="96"
       inkscape:export-ydpi="96" />
    <path
       style="opacity:1;vector-effect:none;fill:#ffffff;fill-opacity:1;stroke:#ffffff;stroke-width:2.5;stroke-linecap:round;stroke-linejoin:round;stroke-miterlimit:4;stroke-dasharray:none;stroke-dashoffset:0;stroke-opacity:1;paint-order:fill markers stroke"
       d="m 116.12959,181.84267 c 15.65021,1.80578 28.29081,-0.60193 28.29081,-0.60193 0,0 -1.2039,6.62123 -1.2039,19.26178 0,12.64054 7.2232,27.08687 17.45601,26.48495 10.23279,-0.60193 19.2618,-9.63089 19.2618,-18.65985 0,-9.02896 -2.0516,-51.77861 -5.66322,-60.20565 -3.61159,-8.42703 -2.89938,-12.51764 -2.89938,-12.51764 l 31.64369,0.3671 c 0,0 3.79539,9.1576 3.19349,24.20589 -0.60198,15.04825 2.00372,19.66169 2.60562,30.49643 0.6019,10.83476 5.42981,21.86739 1.81819,35.71179 -3.61159,13.8444 -7.82511,22.87336 -27.0868,25.2811 -19.2618,2.4077 -32.5043,4.21351 -48.15451,-3.61159 -15.65018,-7.82511 -16.85409,-45.1448 -16.85409,-49.96024 0,-4.81545 -2.40771,-16.25214 -2.40771,-16.25214 z"
       id="path4523-5"
       inkscape:connector-curvature="0"
       sodipodi:nodetypes="ccssssccssscssc"
       inkscape:export-xdpi="96"
       inkscape:export-ydpi="96" />
    <path
       style="opacity:1;vector-effect:none;fill:#ffffff;fill-opacity:1;stroke:#ffffff;stroke-width:2.5;stroke-linecap:round;stroke-linejoin:round;stroke-miterlimit:4;stroke-dasharray:none;stroke-dashoffset:0;stroke-opacity:1;paint-order:fill markers stroke"
       d="m 172.71111,98.776228 c 11.34229,-0.66037 17.45599,-2.40771 28.89268,-2.40771 11.43672,0 53.57181,-3.00966 65.61043,-1.80581 12.03859,1.20386 37.92159,-0.60192 37.92159,-0.60192 l 6.0194,26.484952 c 0,0 -15.04831,-1.20386 -36.11592,-1.20386 -21.06758,0 -28.29067,0.60193 -28.29067,0.60193 0,0 3.61158,3.00966 3.61158,18.65985 0,15.65021 4.21349,43.33901 4.8154,52.36797 0.6019,9.02896 1.32892,24.2724 3.7366,38.71875 2.40771,14.44633 3.00961,16.85407 3.00961,16.85407 0,0 -5.41729,-2.40776 -15.0482,-0.60196 l -9.63092,1.80579 c 0,0 -4.94048,-34.50522 -6.14428,-47.74769 -1.20391,-13.24248 -5.4174,-25.88302 -5.4174,-39.72743 0,-13.8444 -4.21352,-39.72742 -4.21352,-39.72742 0,0 -30.09648,1.20385 -37.31969,1.80578 -7.2232,0.60195 -9.63088,0 -9.63088,0 z"
       id="path4525-9"
       inkscape:connector-curvature="0"
       sodipodi:nodetypes="cssccscsssccccscccc"
       inkscape:export-xdpi="96"
       inkscape:export-ydpi="96" />
    <path
       style="opacity:1;vector-effect:none;fill:#ffffff;fill-opacity:1;stroke:#ffffff;stroke-width:2.5;stroke-linecap:round;stroke-linejoin:round;stroke-miterlimit:4;stroke-dasharray:none;stroke-dashoffset:0;stroke-opacity:1;paint-order:fill markers stroke"
       d="m 301.64881,196.24778 c 2.40768,12.03862 -0.3044,28.89446 2.10339,37.92341 2.4077,9.02896 1.8058,13.24248 1.8058,13.24248 0,0 -12.6406,1.80581 -17.45599,1.20385 -4.81549,-0.6019 -3.31142,-3.74234 -4.21351,-6.01929 -5.5212,-13.93516 -4.03379,-30.05709 -6.4415,-44.50342 -2.40771,-14.44636 -2.40771,-33.70813 -2.40771,-40.93131 v -17.45596 c 0,0 14.28063,-1.05873 19.09612,-1.66069 4.81539,-0.60192 4.81539,5.41737 7.2231,17.45599 2.40779,12.03863 0.76769,16.10702 0.76769,16.10702 l 29.49461,-3.00966 c 0,0 1.20391,-31.90233 -1.80581,-49.96024 -3.00969,-18.05792 -3.00969,-25.883032 -3.00969,-25.883032 0,0 19.2618,-0.60192 24.0773,-0.60192 4.81539,0 3.61159,2.4077 3.61159,11.436662 0,9.02896 1.80581,42.13516 3.61151,58.38727 1.80581,16.25214 -1.8057,20.46566 0.602,38.52358 2.40769,18.05791 2.2279,46.91115 2.2279,46.91115 0,0 -5.41739,2.40773 -13.2425,1.80581 -7.8251,-0.60196 -12.03859,-3.00966 -12.03859,-3.00966 0,0 -1.626,-52.93046 -5.23762,-52.93046 -3.61159,0 -28.76809,2.96842 -28.76809,2.96842 z"
       id="path4527-0"
       inkscape:connector-curvature="0"
       sodipodi:nodetypes="csccssscccccscsscccscsc"
       inkscape:export-xdpi="96"
       inkscape:export-ydpi="96" />
    <path
       style="opacity:1;vector-effect:none;fill:#ffffff;fill-opacity:1;stroke:#ffffff;stroke-width:2.5;stroke-linecap:round;stroke-linejoin:round;stroke-miterlimit:4;stroke-dasharray:none;stroke-dashoffset:0;stroke-opacity:1;paint-order:fill markers stroke"
       d="m 18.682813,400.77416 c 0,0 7.30369,-30.80149 16.84189,-52.86065 4.4536,-10.29981 9.2736,-17.19832 12.6677,-27.14509 8.88021,-26.02423 22.13491,-47.05694 31.40331,-67.29272 3.6684,-8.00936 5.6555,-10.6716 7.1319,-15.2826 2.3863,-7.45286 11.71869,-25.11153 11.71869,-25.11153 0,0 3.691307,24.8293 4.872407,37.31874 1.45999,15.43765 8.14861,40.85649 8.369,64.09836 0.18669,19.69233 0.097,35.6045 2.13591,51.2223 2.60307,19.93723 4.40118,33.70935 4.40118,33.70935 0,0 -33.849197,-1.17872 -46.231387,-0.0531 -12.3822,1.12565 -53.3106,4.21103 -53.3106,1.3969 z"
       id="path4540-8"
       inkscape:connector-curvature="0"
       sodipodi:nodetypes="csssscssscsc"
       inkscape:export-xdpi="96"
       inkscape:export-ydpi="96" />
    <path
       style="opacity:1;vector-effect:none;fill:#ffffff;fill-opacity:1;stroke:#ffffff;stroke-width:2.5;stroke-linecap:round;stroke-linejoin:round;stroke-miterlimit:4;stroke-dasharray:none;stroke-dashoffset:0;stroke-opacity:1;paint-order:fill markers stroke"
       d="m 132.57879,401.33373 c -2.16307,-6.62527 -3.414,-10.24194 -2.13378,-30.29908 1.28029,-20.05711 0.85349,-57.61088 -1.70691,-70.84004 -2.56051,-13.22917 -4.69429,-34.99329 -0.4268,-34.99329 4.26749,0 34.1398,-2.56048 44.80851,-1.70699 10.66869,0.85349 32.43278,0.85349 30.7258,3.84072 -1.70701,2.98725 -1.42402,18.35663 -1.90431,21.20445 -3.47179,1.85065 -38.40729,2.13376 -43.95499,2.5605 -5.54771,0.42675 -0.2294,17.20279 -0.6562,24.03076 -0.42672,6.82797 0.85349,14.93615 0.85349,14.93615 0,0 5.97451,1.28024 11.52221,1.28024 5.54771,0 8.10818,-0.42675 7.68149,1.70699 -0.4268,2.13375 0.42669,11.94892 -0.8536,14.08266 -1.28018,2.13375 2.13381,5.54773 -2.5604,4.26749 -4.69429,-1.28024 -8.10821,-0.8535 -11.5222,-2.13374 -3.414,-1.28026 -6.828,0.8535 -6.828,3.84072 0,2.98723 1.28029,29.01881 1.28029,34.99329 0,5.97445 3.41392,12.80239 3.41392,12.80239 0,0 -11.09541,-1.70698 -16.64311,0 -5.54771,1.70702 -11.09541,0.42678 -11.09541,0.42678 z"
       id="path4542-9"
       inkscape:connector-curvature="0"
       sodipodi:nodetypes="csssscccccsccccssccc"
       inkscape:export-xdpi="96"
       inkscape:export-ydpi="96" />
    <path
       style="opacity:1;vector-effect:none;fill:#ffffff;fill-opacity:1;stroke:#ffffff;stroke-width:2.5;stroke-linecap:round;stroke-linejoin:round;stroke-miterlimit:4;stroke-dasharray:none;stroke-dashoffset:0;stroke-opacity:1;paint-order:fill markers stroke"
       d="m 188.05591,304.88882 c 3.8408,14.5094 4.69429,34.56654 5.12098,43.10147 0.42672,8.53495 -1.28018,17.06991 1.28022,17.06991 2.5605,0 26.03158,-0.85349 32.00609,-0.42675 5.9745,0.42675 16.21642,2.98723 6.82791,-4.26749 -9.38839,-7.25469 -20.9106,-19.63036 -20.9106,-19.63036 0,0 13.65589,-5.97448 18.3502,-14.50941 4.69419,-8.53495 7.25469,-17.06988 -6.4013,-20.05713 -13.65591,-2.98723 -32.8595,0.42674 -36.2735,-1.28024 z"
       id="path4544-5"
       inkscape:connector-curvature="0"
       inkscape:export-xdpi="96"
       inkscape:export-ydpi="96" />
    <path
       style="opacity:1;vector-effect:none;fill:#ffffff;fill-opacity:1;stroke:#ffffff;stroke-width:2.5;stroke-linecap:round;stroke-linejoin:round;stroke-miterlimit:4;stroke-dasharray:none;stroke-dashoffset:0;stroke-opacity:1;paint-order:fill markers stroke"
       d="m 337.0572,303.08317 c 7.68141,2.56048 18.71041,3.08589 18.71041,0.0987 0,-2.98722 1.4201,-15.5907 -2.9872,-21.33737 -3.53271,-4.60635 -12.3757,-12.37565 -20.9106,-13.65592 -8.53501,-1.28023 -18.7769,2.13374 -22.61769,7.68147 -3.84072,5.54767 -6.82342,10.64434 -8.53491,14.08266 -2.38709,4.79554 -3.84072,30.29905 -3.414,39.26075 0.4268,8.9617 3.13698,21.06036 8.53499,26.45833 5.97439,5.97448 16.64311,8.10819 29.8723,5.54771 13.22912,-2.56051 18.7769,-6.82795 18.7769,-21.7641 0,-14.93615 0.42672,-13.65591 -8.9617,-13.65591 h -9.3884 c 0,0 3.84072,9.81519 0,17.06988 -3.8408,7.25472 -13.65599,5.54773 -17.9234,-1.28024 -4.26749,-6.82797 -2.13379,-21.76412 -3.414,-28.16531 -1.28029,-6.40123 0,-22.19087 8.10821,-25.1781 8.10821,-2.98722 10.66861,-1.28024 12.80239,4.69421 2.13371,5.97448 1.3467,10.14328 1.3467,10.14328 z"
       id="path4546-5"
       inkscape:connector-curvature="0"
       sodipodi:nodetypes="csscssssssscscsssc"
       inkscape:export-xdpi="96"
       inkscape:export-ydpi="96" />
    <path
       style="opacity:1;vector-effect:none;fill:#ffffff;fill-opacity:1;stroke:#ffffff;stroke-width:2.5;stroke-linecap:round;stroke-linejoin:round;stroke-miterlimit:4;stroke-dasharray:none;stroke-dashoffset:0;stroke-opacity:1;paint-order:fill markers stroke"
       d="m 368.51111,265.55954 c 2.9872,9.38844 -0.099,52.98519 2.46179,65.78761 2.5605,12.80242 3.8408,29.8723 4.69432,40.96774 0.85349,11.09543 0.42669,27.73857 2.98719,27.73857 2.56051,0 11.6798,-2.13373 29.6031,-0.85349 17.9234,1.28024 55.05039,4.26749 56.33069,-0.42675 0.4296,-1.57546 -13.4661,-14.90294 -27.79329,-33.99128 -28.36209,-37.78724 -64.598,-102.62468 -68.2838,-99.2224 z"
       id="path4548-9"
       inkscape:connector-curvature="0"
       sodipodi:nodetypes="csssscsc"
       inkscape:export-xdpi="96"
       inkscape:export-ydpi="96" />
    <path
       style="opacity:1;vector-effect:none;fill:#ffffff;fill-opacity:1;stroke:#ffffff;stroke-width:2.5;stroke-linecap:round;stroke-linejoin:round;stroke-miterlimit:4;stroke-dasharray:none;stroke-dashoffset:0;stroke-opacity:1;paint-order:fill markers stroke"
       d="m 178.43801,382.75619 c -0.42672,10.24192 -3.18449,19.43103 1.93649,19.00428 5.1209,-0.42674 37.55371,-1.70701 57.1841,-1.70701 19.63039,0 40.1143,0.42675 51.63641,0.42675 11.5222,0 55.05039,-1.28024 60.17141,-1.28024 5.12098,0 3.41399,0.42675 5.5477,-1.70699 2.13378,-2.13373 0.62399,-18.15078 0.62399,-18.15078 0,0 -30.299,0.42674 -47.79571,0 -17.4966,-0.42675 -33.12109,-0.29591 -33.12109,-0.29591 0,0 -2.75781,-19.82976 -1.90432,-36.47287 0.85352,-16.64316 -1.70698,-35.02755 -1.70698,-41.42877 0,-6.4012 1.28018,-10.66867 1.28018,-10.66867 l 18.18511,0.29591 c 0,0 1.28021,1.74125 2.5605,-5.08669 1.28022,-6.82797 -1.3789,-19.46735 -1.3789,-19.46735 0,0 -21.7641,1.70698 -32.00609,1.70698 -10.24191,0 -12.37559,-3.414 -20.9106,-2.56048 -8.53491,0.8535 -21.3373,-1.28026 -21.3373,-1.28026 0,0 -0.32811,24.1273 2.23229,24.55404 2.56051,0.42675 28.8558,1.28024 29.2826,3.84075 0.4267,2.56048 2.33101,88.5703 2.33101,88.5703 0,0 -6.66491,0.85349 -19.8941,0.85349 -13.2292,0 -34.5666,-0.42674 -41.39451,-0.42674 -6.828,0 -11.94891,-1.70699 -11.52219,1.28026 z"
       id="path4550-8"
       inkscape:connector-curvature="0"
       sodipodi:nodetypes="cssssccsccsccscscccccssc"
       inkscape:export-xdpi="96"
       inkscape:export-ydpi="96" />
  </g>
</svg>
